<?xml version="1.0" encoding="UTF-8"?>
<svg version="1.1" xmlns="http://www.w3.org/2000/svg" width="341" height="313">
<path d="M0 0 C2.71865056 1.24179545 5.2160256 2.79583551 7.75 4.375 C9.28373103 5.30358882 10.81758856 6.23196875 12.3515625 7.16015625 C13.12918945 7.63598145 13.90681641 8.11180664 14.70800781 8.60205078 C18.1597375 10.70735587 21.63987454 12.76309333 25.125 14.8125 C25.80183838 15.21138428 26.47867676 15.61026855 27.17602539 16.02124023 C33.47811025 19.72168594 39.82812385 23.33659477 46.1875 26.9375 C47.65823975 27.77148315 47.65823975 27.77148315 49.15869141 28.62231445 C53.72182891 31.19761692 58.28007628 33.72333091 63 36 C63 36.66 63 37.32 63 38 C63.763125 38.20625 64.52625 38.4125 65.3125 38.625 C70.49898594 40.55894391 75.19033084 43.2785146 80 46 C80 46.66 80 47.32 80 48 C80.72832031 48.10957031 81.45664063 48.21914063 82.20703125 48.33203125 C85.1727294 49.04131011 87.1161626 50.06819496 89.6875 51.6875 C90.54859375 52.22117188 91.4096875 52.75484375 92.296875 53.3046875 C93.18890625 53.86414062 94.0809375 54.42359375 95 55 C96.80943893 56.10917584 98.6218353 57.21354505 100.4375 58.3125 C101.24058594 58.80363281 102.04367187 59.29476562 102.87109375 59.80078125 C105.07286228 61.12989008 105.07286228 61.12989008 108 62 C108 62.66 108 63.32 108 64 C109.06734375 64.40412109 109.06734375 64.40412109 110.15625 64.81640625 C113.05892082 66.02452336 115.74821254 67.41860608 118.5 68.9375 C119.4178125 69.44152344 120.335625 69.94554688 121.28125 70.46484375 C122.1784375 70.97144531 123.075625 71.47804688 124 72 C124.86936691 72.29054764 125.73873383 72.58109528 126.63444519 72.88044739 C129 75 129 75 129.45058632 77.20381737 C129.61997844 80.29584161 129.61729652 83.35158074 129.56762695 86.44799805 C129.56835709 87.62861816 129.56908722 88.80923828 129.56983948 90.02563477 C129.56695082 93.2633881 129.54186136 96.50006377 129.50696969 99.737602 C129.4757328 103.12082224 129.47277761 106.5040632 129.46684265 109.8874054 C129.45129617 116.29425858 129.41025747 122.70068566 129.3600952 129.10735112 C129.30422623 136.40105479 129.27672151 143.69477871 129.25161803 150.98864305 C129.1993417 165.99270518 129.10764068 180.9962138 129 196 C115.47 196.33 101.94 196.66 88 197 C91.08280661 200.08280661 92.90696873 201.72443359 96.52734375 203.734375 C97.39576904 204.22212402 98.26419434 204.70987305 99.15893555 205.21240234 C100.07586182 205.71980957 100.99278809 206.2272168 101.9375 206.75 C103.83946713 207.81866707 105.74051138 208.88897831 107.640625 209.9609375 C108.56166016 210.48010742 109.48269531 210.99927734 110.43164062 211.53417969 C115.70939332 214.54631155 120.8462234 217.78163879 126 221 C127.53853007 221.94263863 129.08012633 222.88029418 130.625 223.8125 C131.39972656 224.28042969 132.17445313 224.74835938 132.97265625 225.23046875 C135.56779921 226.74737167 138.18052181 228.2171988 140.80859375 229.67578125 C141.67081543 230.16006592 142.53303711 230.64435059 143.42138672 231.14331055 C145.1630909 232.12042301 146.91074875 233.08700826 148.66455078 234.04223633 C149.86893799 234.72129028 149.86893799 234.72129028 151.09765625 235.4140625 C152.18832397 236.01661865 152.18832397 236.01661865 153.30102539 236.63134766 C155.45884362 238.36963318 155.52389569 239.2998205 156 242 C156.05837278 243.74155009 156.05978437 245.4854266 156.02172852 247.22753906 C156.00163223 248.26831604 155.98153595 249.30909302 155.96083069 250.38140869 C155.92027809 252.05659576 155.92027809 252.05659576 155.87890625 253.765625 C155.85529526 254.91415955 155.83168427 256.06269409 155.80735779 257.24603271 C155.73078927 260.91414966 155.64673513 264.58205188 155.5625 268.25 C155.50927253 270.73696866 155.45653217 273.2239478 155.40429688 275.7109375 C155.27518326 281.8074245 155.13992344 287.90375204 155 294 C153.42440716 293.22519606 151.85032122 292.44732742 150.27685547 291.66821289 C149.40012177 291.23537491 148.52338806 290.80253693 147.62008667 290.35658264 C143.62962115 288.29046921 139.89013378 285.88373652 136.125 283.4375 C128.48201457 278.53610364 120.75531618 273.80349374 112.93798828 269.18530273 C108.98059843 266.8360903 105.09748449 264.42491319 101.28125 261.8515625 C97.98092484 259.62613041 94.64921621 257.60915174 91.125 255.75 C88.30418606 254.25520971 85.65994461 252.77329641 83 251 C83 267.83 83 284.66 83 302 C74.03114187 298.6366782 74.03114187 298.6366782 70.25 296.25 C66.6713327 294.03437594 63.07856591 291.86191785 59.4375 289.75 C55.86172596 287.67299801 52.29376715 285.58414566 48.73828125 283.47265625 C47.99586182 283.03276367 47.25344238 282.59287109 46.48852539 282.13964844 C45.03719562 281.27920252 43.58708403 280.41669724 42.13842773 279.55175781 C38.76877147 277.55687658 35.39185057 275.66548402 31.875 273.94140625 C28.35143999 272.2128267 25.06045763 270.23859987 21.75 268.125 C15.68192073 264.33511189 9.45726336 261.07156311 3 258 C3 257.34 3 256.68 3 256 C2.38125 255.855625 1.7625 255.71125 1.125 255.5625 C-1 255 -1 255 -3 254 C-3 271.49 -3 288.98 -3 307 C-7.54081244 305.05393752 -11.66425027 303.18652763 -15.9375 300.8125 C-16.89527344 300.28269531 -17.85304688 299.75289063 -18.83984375 299.20703125 C-19.90912109 298.60955078 -19.90912109 298.60955078 -21 298 C-21 297.34 -21 296.68 -21 296 C-21.70640625 295.90589844 -22.4128125 295.81179688 -23.140625 295.71484375 C-26.5310533 294.86723667 -28.8114886 293.45426187 -31.75 291.5625 C-32.90783395 290.82911601 -34.06674266 290.09742682 -35.2265625 289.3671875 C-35.83918945 288.98014648 -36.45181641 288.59310547 -37.08300781 288.19433594 C-40.39442122 286.13123935 -43.75886512 284.15962233 -47.125 282.1875 C-47.84067139 281.76766846 -48.55634277 281.34783691 -49.29370117 280.9152832 C-55.32718082 277.38236863 -61.37800431 273.87951168 -67.43139648 270.38085938 C-75.88881122 265.49137675 -84.32563391 260.56679116 -92.76171875 255.640625 C-97.03269934 253.14679923 -101.30640142 250.657721 -105.58203125 248.171875 C-106.65686768 247.54643799 -107.7317041 246.92100098 -108.83911133 246.27661133 C-110.88654487 245.08534564 -112.93452476 243.89501828 -114.9831543 242.70581055 C-119.79250025 239.90585739 -124.56132086 237.06724684 -129.24609375 234.06274414 C-131.11715826 232.92901031 -133.03919397 231.96835848 -135 231 C-135.16348878 211.00737837 -135.28694476 191.01489228 -135.3626852 171.02174091 C-135.39878696 161.73863193 -135.4480097 152.45593818 -135.52807617 143.1730957 C-135.59782545 135.08256687 -135.64300244 126.99233871 -135.65861946 118.90151757 C-135.6677493 114.61690724 -135.68921799 110.33315712 -135.7401104 106.0488224 C-135.78762685 102.01601484 -135.80228108 97.98442161 -135.79175377 93.9513607 C-135.79367952 92.4714536 -135.80760493 90.99150589 -135.83443832 89.51184082 C-136.02732268 78.32700753 -136.02732268 78.32700753 -133.48446846 75.04236603 C-131.62147522 73.68061829 -131.62147522 73.68061829 -128 72 C-127.09636719 71.47390137 -126.19273438 70.94780273 -125.26171875 70.40576172 C-124.41222656 69.95990723 -123.56273437 69.51405273 -122.6875 69.0546875 C-117.37164158 66.21388986 -112.17779544 63.2088844 -107 60.125 C-106.06849121 59.57255615 -105.13698242 59.0201123 -104.17724609 58.45092773 C-101.11709698 56.63574299 -98.05849802 54.81796517 -95 53 C-90.54243903 50.35286372 -86.08403162 47.70715823 -81.625 45.0625 C-79.92657959 44.05509766 -79.92657959 44.05509766 -78.19384766 43.02734375 C-67.71509194 36.81859517 -57.1940898 30.68349056 -46.66845703 24.5546875 C-37.72868282 19.34622618 -28.79626506 14.13570569 -20 8.6875 C-12.13800905 3.84254808 -12.13800905 3.84254808 -9 2 C-8.34 1.608125 -7.68 1.21625 -7 0.8125 C-4.33588921 -0.26979501 -2.87481911 -0.41890221 0 0 Z M-11.359375 58.1328125 C-12.2155542 58.60219238 -13.0717334 59.07157227 -13.95385742 59.55517578 C-14.87658447 60.07321777 -15.79931152 60.59125977 -16.75 61.125 C-17.71719971 61.6597998 -18.68439941 62.19459961 -19.6809082 62.74560547 C-27.9371203 67.33791222 -36.08265016 72.11591185 -44.22094727 76.91308594 C-51.21675113 81.01747319 -58.31034808 84.86082512 -65.51855469 88.57666016 C-71.33572372 91.59395318 -76.90596968 94.88932621 -82.43359375 98.40625 C-85 100 -85 100 -89 102 C-89 135.33 -89 168.66 -89 203 C-82.07 206.96 -75.14 210.92 -68 215 C-63.95383462 217.34715718 -59.91062 219.6975184 -55.875 222.0625 C-53.84779918 223.24764035 -51.82045366 224.43253323 -49.79296875 225.6171875 C-48.81634277 226.18791992 -47.8397168 226.75865234 -46.83349609 227.34667969 C-41.86584534 230.24526067 -36.88903503 233.12797619 -31.90795898 236.00341797 C-27.82084568 238.36317909 -23.74168473 240.73549494 -19.671875 243.125 C-18.79635986 243.63716064 -17.92084473 244.14932129 -17.01879883 244.67700195 C-15.33169777 245.66424249 -13.64654813 246.65482743 -11.96362305 247.64916992 C-11.21121338 248.08849854 -10.45880371 248.52782715 -9.68359375 248.98046875 C-9.01900146 249.37129639 -8.35440918 249.76212402 -7.66967773 250.16479492 C-6.01303714 251.1491235 -6.01303714 251.1491235 -4 251 C-4 233.84 -4 216.68 -4 199 C0.455 201.475 0.455 201.475 5 204 C6.47339844 204.81339844 7.94679688 205.62679687 9.46484375 206.46484375 C16.60611555 210.40995043 23.7135104 214.37452807 30.68359375 218.6171875 C37.93121697 223.61083277 37.93121697 223.61083277 46 226 C46 226.66 46 227.32 46 228 C46.58265625 228.27972656 47.1653125 228.55945313 47.765625 228.84765625 C57.55719687 233.63567331 66.84137635 239.25557758 76.13671875 244.93359375 C77.78683995 246.08278778 77.78683995 246.08278778 79 246 C79.39772167 227.39827491 79.69718347 208.79741594 79.88080692 190.19231606 C79.96834849 181.55270623 80.08760046 172.9157426 80.2824707 164.27783203 C80.45231215 156.74574672 80.56167585 149.21557743 80.59950441 141.68163049 C80.62161226 137.69384384 80.67323556 133.71153608 80.79741096 129.72551346 C82.00097698 113.98712094 82.00097698 113.98712094 77.34293747 99.70311737 C73.39610271 96.16306612 69.05583213 94.20642642 64.0303936 92.64605331 C61.27618255 91.76968768 58.79904001 90.4749968 56.25 89.125 C55.31285156 88.66996094 54.37570313 88.21492188 53.41015625 87.74609375 C41.66853525 81.734061 30.33962785 74.85647112 19.05957031 68.02563477 C13.79389377 64.8472865 8.43619665 61.8747345 3 59 C1.865625 58.38125 0.73125 57.7625 -0.4375 57.125 C-4.75379681 55.23004043 -7.4437103 55.96747185 -11.359375 58.1328125 Z " fill="#FBFBFB" transform="translate(165,3)"/>
<path d="M0 0 C0.66 0.33 1.32 0.66 2 1 C1.98334541 1.94507416 1.98334541 1.94507416 1.96635437 2.90924072 C1.85579749 9.46262445 1.78034784 16.01574364 1.7253418 22.56982422 C1.70018645 25.01622272 1.66605834 27.46254599 1.62280273 29.90869141 C1.56219929 33.42369131 1.53379979 36.93769829 1.51171875 40.453125 C1.48591232 41.5480426 1.4601059 42.64296021 1.43351746 43.77105713 C1.2765499 49.8476078 1.2765499 49.8476078 4.53051758 54.72167969 C5.34544678 55.14352539 6.16037598 55.56537109 7 56 C4.83125748 55.49396008 3.00032373 55.00016187 1 54 C1 71.49 1 88.98 1 107 C0.01 106.67 -0.98 106.34 -2 106 C-1.505 105.01 -1.505 105.01 -1 104 C-0.88127427 102.36664808 -0.82290908 100.72872646 -0.79467773 99.09130859 C-0.7647599 97.55994766 -0.7647599 97.55994766 -0.73423767 95.99765015 C-0.70916893 94.33978989 -0.70916893 94.33978989 -0.68359375 92.6484375 C-0.66281265 91.5192691 -0.64203156 90.39010071 -0.62062073 89.22671509 C-0.55508665 85.60954028 -0.49622226 81.99229119 -0.4375 78.375 C-0.39431846 75.92707556 -0.35070429 73.47915872 -0.30664062 71.03125 C-0.19940133 65.0209125 -0.09764213 59.01050065 0 53 C-1.175625 52.566875 -1.175625 52.566875 -2.375 52.125 C-5 51 -5 51 -7 49 C-2.25 49.875 -2.25 49.875 0 51 C0 34.17 0 17.34 0 0 Z " fill="#BABABA" transform="translate(161,203)"/>
</svg>
